<svg width="252" height="250" viewBox="0 0 252 250" fill="none" xmlns="http://www.w3.org/2000/svg">
<path d="M123.83 233.79C125.015 233.826 126.012 234.136 126.819 234.719L126.215 235.643C125.59 235.17 124.76 234.929 123.726 234.92C123.063 234.911 122.513 235.04 122.074 235.305C121.624 235.57 121.391 235.982 121.373 236.539C121.341 237.585 122.092 238.131 123.625 238.179L125.141 238.226L125.108 239.306L123.609 239.26C123.121 239.245 122.688 239.342 122.31 239.551C121.919 239.772 121.7 240.096 121.652 240.525C121.613 241.012 121.777 241.378 122.141 241.621C122.506 241.865 122.984 242.002 123.576 242.032C124.575 242.063 125.383 241.879 126 241.479L126.493 242.471C125.63 242.945 124.687 243.165 123.664 243.134C122.734 243.128 121.956 242.907 121.33 242.469C120.704 242.042 120.415 241.405 120.465 240.558C120.487 240.221 120.625 239.877 120.88 239.524C121.124 239.171 121.416 238.919 121.758 238.766C121.275 238.6 120.883 238.309 120.582 237.893C120.28 237.477 120.137 237.036 120.151 236.571C120.18 235.654 120.55 234.956 121.263 234.478C121.963 233.999 122.819 233.77 123.83 233.79Z" fill="#211E1F"/>
<path d="M111.274 235.491L110.779 240.067C111.279 240.951 112.154 241.461 113.402 241.597C114.418 241.707 115.217 241.455 115.798 240.84C116.379 240.225 116.724 239.414 116.833 238.409C116.943 237.392 116.78 236.521 116.344 235.796C115.908 235.07 115.182 234.652 114.165 234.542C112.905 234.405 111.942 234.722 111.274 235.491ZM117.28 235.091C117.922 236.072 118.171 237.222 118.029 238.539C117.886 239.856 117.397 240.92 116.561 241.729C115.714 242.537 114.62 242.869 113.28 242.723C112.748 242.666 112.232 242.516 111.732 242.275C111.22 242.044 110.823 241.761 110.544 241.427L110.342 242.317L109.337 242.208L110.326 233.073L111.331 233.182L111.337 234.095C111.681 233.84 112.128 233.649 112.679 233.522C113.231 233.394 113.767 233.359 114.287 233.415C115.627 233.561 116.625 234.119 117.28 235.091Z" fill="#211E1F"/>
<path d="M108.914 233.067L107.122 242.096L99.7184 240.623L101.51 231.594L102.689 231.829L101.119 239.747L106.146 240.747L107.717 232.829L108.914 233.067Z" fill="#211E1F"/>
<path d="M99.8409 231.162L97.2688 240L96.114 239.663L98.1162 232.783L91.043 238.183L89.9719 237.87L92.544 229.032L93.7155 229.374L91.728 236.204L98.7698 230.849L99.8409 231.162Z" fill="#211E1F"/>
<path d="M85.5544 225.978C86.8605 226.468 87.7535 227.272 88.2335 228.39C88.6986 229.515 88.6836 230.724 88.1886 232.015C87.6895 233.318 86.9043 234.23 85.8329 234.752C84.7506 235.27 83.539 235.265 82.1978 234.737C81.1647 234.315 80.3691 233.76 79.8111 233.072L80.6875 232.345C81.1377 232.891 81.7655 233.332 82.5708 233.666C83.6082 234.077 84.52 234.085 85.3062 233.69C86.0924 233.295 86.6789 232.593 87.0658 231.584C87.4484 230.585 87.4762 229.668 87.1491 228.833C86.8071 228.004 86.1295 227.401 85.1163 227.024C84.3352 226.724 83.5743 226.631 82.8337 226.744L82.6685 225.616C83.5426 225.479 84.5046 225.6 85.5544 225.978Z" fill="#211E1F"/>
<path d="M80.2132 225.537L77.7745 224.373C77.313 224.153 76.8762 224.137 76.4641 224.327C76.0415 224.512 75.7229 224.83 75.5081 225.281C75.2932 225.732 75.2473 226.18 75.3701 226.625C75.4825 227.065 75.7799 227.4 76.2624 227.631L78.6696 228.78L80.2132 225.537ZM81.7858 225.032L77.8294 233.344L76.7438 232.826L78.175 229.819L75.7678 228.67C74.9707 228.289 74.4585 227.729 74.2313 226.99C74.0041 226.25 74.0678 225.508 74.4225 224.763C74.7771 224.017 75.3129 223.5 76.0296 223.212C76.7309 222.928 77.4749 222.974 78.2616 223.35L81.7858 225.032Z" fill="#211E1F"/>
<path d="M55.7483 208.407C56.6447 209.183 57.2226 210.052 57.4821 211.015L56.432 211.351C56.2448 210.589 55.7526 209.879 54.9552 209.219C54.4467 208.795 53.9387 208.547 53.4313 208.477C52.9151 208.399 52.4748 208.571 52.1103 208.994C51.4269 209.786 51.6652 210.684 52.8252 211.688L53.9721 212.68L53.2659 213.499L52.1322 212.517C51.7631 212.198 51.3658 212 50.9403 211.924C50.4984 211.849 50.1238 211.963 49.8165 212.266C49.48 212.62 49.3764 213.007 49.5058 213.426C49.6351 213.846 49.9201 214.254 50.3607 214.65C51.1165 215.305 51.8596 215.671 52.5899 215.75L52.3475 216.831C51.3795 216.654 50.5088 216.231 49.7354 215.562C49.0171 214.971 48.553 214.308 48.343 213.573C48.1255 212.846 48.3026 212.17 48.8745 211.542C49.1035 211.295 49.428 211.115 49.848 211.002C50.2591 210.881 50.6453 210.869 51.0065 210.967C50.7361 210.533 50.6151 210.059 50.6436 209.546C50.6721 209.032 50.8382 208.6 51.142 208.248C51.7418 207.553 52.4687 207.244 53.3225 207.322C54.1675 207.393 54.9761 207.754 55.7483 208.407Z" fill="#211E1F"/>
<path d="M45.9079 201.484L42.6439 204.729C42.476 205.732 42.8339 206.679 43.7177 207.571C44.4377 208.297 45.2168 208.604 46.0549 208.492C46.893 208.38 47.6706 207.967 48.3877 207.254C49.113 206.533 49.5347 205.753 49.6527 204.915C49.7707 204.076 49.4697 203.294 48.7496 202.568C47.8577 201.668 46.9105 201.307 45.9079 201.484ZM50.8228 204.956C50.7036 206.124 50.1742 207.175 49.2346 208.109C48.2949 209.043 47.2459 209.561 46.0876 209.664C44.9211 209.759 43.8632 209.327 42.914 208.37C42.5376 207.99 42.2313 207.549 41.9949 207.046C41.7422 206.544 41.6125 206.074 41.6058 205.638L40.8893 206.203L40.1774 205.485L46.693 199.007L47.4049 199.725L46.8356 200.439C47.2626 200.457 47.7302 200.59 48.2385 200.839C48.7468 201.087 49.185 201.397 49.5532 201.769C50.5024 202.726 50.9256 203.789 50.8228 204.956Z" fill="#211E1F"/>
<path d="M45.5042 197.81L38.4354 203.707L33.6082 197.903L40.6769 192.006L41.4462 192.931L35.2476 198.102L38.5252 202.043L44.7238 196.872L45.5042 197.81Z" fill="#211E1F"/>
<path d="M39.1298 190.425L31.5917 195.709L30.9026 194.722L36.7704 190.61L27.8767 190.392L27.2376 189.478L34.7758 184.194L35.4748 185.195L29.6499 189.277L38.4907 189.511L39.1298 190.425Z" fill="#211E1F"/>
<path d="M31.1093 178.089C31.8191 179.29 32.0101 180.477 31.6823 181.649C31.3386 182.817 30.5689 183.749 29.3734 184.444C28.1678 185.146 26.9841 185.363 25.8224 185.098C24.6549 184.822 23.7146 184.058 23.0016 182.806C22.4619 181.829 22.1905 180.898 22.1874 180.012L23.3263 179.995C23.3339 180.703 23.5464 181.44 23.9637 182.206C24.5134 183.177 25.2183 183.755 26.0783 183.941C26.9383 184.126 27.8355 183.947 28.7698 183.404C29.6941 182.866 30.291 182.169 30.5604 181.313C30.814 180.453 30.6646 179.558 30.1122 178.629C29.6924 177.905 29.1584 177.355 28.5104 176.979L29.0895 175.997C29.8561 176.438 30.5294 177.136 31.1093 178.089Z" fill="#211E1F"/>
<path d="M27.3477 174.371L26.1772 171.935C25.9557 171.474 25.6249 171.189 25.185 171.078C24.74 170.957 24.2924 171.005 23.8422 171.222C23.3919 171.439 23.0752 171.76 22.892 172.183C22.7038 172.597 22.7254 173.044 22.957 173.526L24.1124 175.93L27.3477 174.371ZM28.8896 174.963L20.5972 178.96L20.0762 177.876L23.0759 176.43L21.9205 174.026C21.5379 173.23 21.4898 172.472 21.7763 171.753C22.0628 171.035 22.5777 170.496 23.3211 170.138C24.0645 169.78 24.806 169.713 25.5456 169.937C26.2696 170.155 26.8205 170.658 27.198 171.443L28.8896 174.963Z" fill="#211E1F"/>
<path d="M19.1826 145.491C19.3955 146.658 19.3017 147.697 18.9011 148.609L17.8717 148.213C18.2028 147.502 18.264 146.64 18.0554 145.627C17.925 144.977 17.684 144.466 17.3324 144.093C16.9787 143.709 16.5274 143.567 15.9787 143.667C14.9497 143.856 14.573 144.705 14.8485 146.214L15.1209 147.706L14.0576 147.901L13.7884 146.426C13.7007 145.946 13.5149 145.542 13.2309 145.216C12.9333 144.881 12.5699 144.735 12.1406 144.778C11.6563 144.843 11.3332 145.079 11.1713 145.487C11.0094 145.895 10.976 146.391 11.071 146.977C11.2505 147.96 11.6003 148.711 12.1205 149.23L11.254 149.921C10.6101 149.176 10.1962 148.301 10.0125 147.294C9.8227 146.384 9.87616 145.576 10.1729 144.872C10.4583 144.17 11.0204 143.754 11.8591 143.624C12.1928 143.575 12.5587 143.638 12.957 143.813C13.3531 143.977 13.6615 144.21 13.8821 144.512C13.9431 144.005 14.1454 143.56 14.4892 143.178C14.833 142.796 15.2336 142.563 15.6909 142.479C16.5941 142.314 17.3541 142.529 17.971 143.125C18.5857 143.71 18.9896 144.499 19.1826 145.491Z" fill="#211E1F"/>
<path d="M14.7686 134.371L10.1909 134.85C9.43168 135.526 9.11718 136.488 9.24742 137.736C9.35354 138.753 9.76836 139.481 10.4919 139.92C11.2154 140.358 12.08 140.525 13.0857 140.42C14.103 140.313 14.9203 139.971 15.5377 139.392C16.1552 138.813 16.4108 138.015 16.3047 136.998C16.1732 135.738 15.6612 134.862 14.7686 134.371ZM16.424 140.158C15.5995 140.992 14.5284 141.478 13.2106 141.616C11.8927 141.754 10.7502 141.5 9.7829 140.853C8.81441 140.195 8.26022 139.195 8.12034 137.854C8.06486 137.322 8.10247 136.787 8.23316 136.247C8.35109 135.697 8.54405 135.25 8.81205 134.907L7.89953 134.897L7.79461 133.891L16.9326 132.935L17.0376 133.941L16.1467 134.139C16.4683 134.421 16.7493 134.818 16.9897 135.331C17.2302 135.843 17.3775 136.359 17.4318 136.88C17.5717 138.221 17.2357 139.313 16.424 140.158Z" fill="#211E1F"/>
<path d="M16.9793 131.529L7.77501 131.672L7.65863 124.124L16.8629 123.981L16.8814 125.184L8.81028 125.309L8.8893 130.434L16.9604 130.309L16.9793 131.529Z" fill="#211E1F"/>
<path d="M17.0811 120.48L7.90053 119.805L7.98849 118.605L15.1347 119.131L8.37475 113.337L8.45634 112.224L17.6369 112.899L17.5477 114.116L10.4536 113.595L17.1627 119.367L17.0811 120.48Z" fill="#211E1F"/>
<path d="M18.75 106.964C18.5479 108.344 17.9511 109.386 16.9597 110.091C15.9587 110.782 14.7748 111.021 13.4081 110.809C12.0299 110.594 10.9725 110.018 10.2357 109.08C9.50077 108.131 9.24943 106.945 9.4817 105.523C9.6756 104.424 10.0495 103.529 10.6035 102.839L11.5 103.543C11.061 104.098 10.7633 104.804 10.6068 105.662C10.4244 106.763 10.6094 107.656 11.1617 108.342C11.7141 109.028 12.5243 109.454 13.5924 109.62C14.649 109.784 15.5509 109.619 16.2982 109.123C17.0357 108.614 17.4815 107.825 17.6356 106.755C17.7638 105.928 17.694 105.165 17.4262 104.464L18.4936 104.066C18.8125 104.891 18.898 105.858 18.75 106.964Z" fill="#211E1F"/>
<path d="M19.0187 101.109L19.645 98.4806C19.7635 97.9831 19.6869 97.5525 19.4151 97.1888C19.146 96.8138 18.7684 96.5682 18.2823 96.452C17.7962 96.3359 17.3486 96.3842 16.9394 96.5972C16.5329 96.7988 16.2677 97.1596 16.1438 97.6797L15.5255 100.275L19.0187 101.109ZM19.842 102.543L10.8888 100.403L11.1676 99.2331L14.4064 100.007L15.0246 97.4123C15.2294 96.553 15.6693 95.9351 16.3445 95.5587C17.0196 95.1823 17.7585 95.09 18.5611 95.2818C19.3638 95.4736 19.9814 95.8901 20.4141 96.5313C20.8382 97.1584 20.9492 97.896 20.7472 98.744L19.842 102.543Z" fill="#211E1F"/>
<path d="M29.8829 73.5162C29.3148 74.5568 28.5883 75.3052 27.7035 75.7615L27.1535 74.8043C27.8574 74.461 28.4471 73.8298 28.9224 72.9107C29.2297 72.3236 29.3641 71.7744 29.3255 71.2629C29.2925 70.7413 29.0313 70.3465 28.542 70.0785C27.6245 69.5761 26.7981 69.9981 26.0629 71.3447L25.336 72.676L24.3879 72.1568L25.1065 70.8408C25.3404 70.4123 25.4497 69.9819 25.4342 69.5493C25.4141 69.101 25.2239 68.7583 24.8634 68.5211C24.4464 68.2663 24.0468 68.2462 23.6646 68.461C23.2825 68.6758 22.9443 69.0405 22.6501 69.5552C22.171 70.4325 21.9702 71.2369 22.0476 71.9683L20.9406 71.9584C20.9088 70.9737 21.138 70.0324 21.6282 69.1347C22.0534 68.3075 22.6027 67.7138 23.2761 67.3537C23.9392 66.988 24.6373 67.0192 25.3703 67.4471C25.6604 67.6192 25.905 67.8989 26.104 68.2862C26.3086 68.6633 26.4016 69.0388 26.3827 69.4128C26.7492 69.057 27.186 68.839 27.6932 68.759C28.2004 68.6789 28.6579 68.7506 29.0657 68.9739C29.871 69.4149 30.3258 70.0615 30.4299 70.9137C30.5397 71.7556 30.3573 72.6231 29.8829 73.5162Z" fill="#211E1F"/>
<path d="M33.97 62.5756L30.1159 60.0596C29.1015 60.1053 28.252 60.6542 27.5672 61.7062C27.0093 62.5635 26.8731 63.3906 27.1586 64.1878C27.4441 64.9849 28.0103 65.6598 28.857 66.2126C29.7135 66.7717 30.5634 67.0212 31.4069 66.9611C32.2504 66.901 32.9511 66.4423 33.509 65.5851C34.2001 64.5233 34.3538 63.5201 33.97 62.5756ZM31.6124 68.1155C30.4475 68.2434 29.3103 67.9451 28.2008 67.2208C27.0913 66.4965 26.3647 65.578 26.021 64.4654C25.6837 63.343 25.8828 62.2168 26.6183 61.0868C26.91 60.6387 27.2763 60.2463 27.7173 59.9096C28.155 59.5568 28.5859 59.3315 29.0101 59.2336L28.3081 58.6504L28.8597 57.8029L36.5533 62.8254L36.0017 63.6729L35.1855 63.265C35.2576 63.6868 35.2257 64.1726 35.0898 64.7224C34.9539 65.2721 34.7433 65.7662 34.4579 66.2046C33.7225 67.3345 32.774 67.9715 31.6124 68.1155Z" fill="#211E1F"/>
<path d="M37.3344 60.9239L30.0968 55.2356L34.7529 49.2935L41.9905 54.9817L41.2486 55.9286L34.902 50.9407L31.7405 54.9753L38.0871 59.9632L37.3344 60.9239Z" fill="#211E1F"/>
<path d="M43.8292 53.7064L37.1154 47.4086L37.9371 46.53L43.1632 51.4323L41.5454 42.6718L42.3076 41.8569L49.0214 48.1547L48.1878 49.046L42.9998 44.1795L44.5913 52.8915L43.8292 53.7064Z" fill="#211E1F"/>
<path d="M53.907 43.2084C52.8804 44.1526 51.7606 44.5856 50.5475 44.5073C49.3353 44.4127 48.2661 43.8518 47.3398 42.8246C46.4058 41.7888 45.9486 40.6743 45.9682 39.4812C45.9965 38.2802 46.5489 37.2007 47.6256 36.2426C48.4687 35.5114 49.3226 35.0525 50.1873 34.8659L50.4391 35.9782C49.7487 36.1324 49.0725 36.4933 48.4104 37.0608C47.5751 37.8006 47.1555 38.611 47.1518 39.492C47.1481 40.373 47.5081 41.2149 48.232 42.0176C48.9481 42.8118 49.7521 43.2521 50.644 43.3387C51.5368 43.4089 52.3801 43.0771 53.174 42.3434C53.7946 41.7821 54.2218 41.145 54.4554 40.4322L55.5347 40.7959C55.2616 41.6385 54.719 42.4427 53.907 43.2084Z" fill="#211E1F"/>
<path d="M56.9912 39.2921L59.128 37.6378C59.5324 37.3248 59.743 36.9413 59.7597 36.4874C59.7856 36.0263 59.6458 35.598 59.3404 35.2024C59.035 34.8068 58.6563 34.5634 58.2043 34.4724C57.7615 34.3743 57.3287 34.4888 56.9059 34.8161L54.7967 36.4491L56.9912 39.2921ZM56.7325 40.9256L51.1077 33.6386L52.0589 32.9022L54.0936 35.5382L56.2029 33.9053C56.9013 33.3645 57.6314 33.1594 58.3929 33.2901C59.1545 33.4208 59.7874 33.8127 60.2916 34.466C60.7959 35.1192 61.0152 35.8314 60.9496 36.6024C60.8861 37.3571 60.5098 38.0013 59.8205 38.5349L56.7325 40.9256Z" fill="#211E1F"/>
<path d="M83.5427 24.4768C82.4477 24.931 81.4124 25.0585 80.4369 24.8591L80.6086 23.7687C81.3723 23.9426 82.2274 23.8207 83.174 23.4029C83.7816 23.1383 84.2306 22.7947 84.5212 22.3722C84.8226 21.9452 84.8667 21.4739 84.6535 20.9584C84.2537 19.9917 83.3452 19.8023 81.9281 20.3901L80.527 20.9713L80.1139 19.9724L81.4989 19.3979C81.9498 19.2109 82.3048 18.9441 82.564 18.5975C82.8294 18.2357 82.8961 17.8495 82.7639 17.4387C82.5988 16.9787 82.3001 16.7125 81.8677 16.6402C81.4353 16.5679 80.9431 16.6399 80.3912 16.8563C79.4679 17.2393 78.807 17.7399 78.4087 18.3581L77.5524 17.6563C78.1452 16.8694 78.9139 16.28 79.8587 15.8881C80.7087 15.5103 81.5088 15.3923 82.2592 15.5341C83.0052 15.6651 83.5295 16.127 83.8323 16.92C83.9504 17.2359 83.9656 17.6072 83.8778 18.0336C83.8008 18.4557 83.6377 18.8064 83.3886 19.0859C83.8972 19.0385 84.3742 19.1427 84.8196 19.3984C85.2649 19.654 85.5764 19.9967 85.7541 20.4263C86.105 21.2748 86.0539 22.0636 85.6007 22.7926C85.1583 23.5172 84.4723 24.0786 83.5427 24.4768Z" fill="#211E1F"/>
<path d="M94.0669 18.482L92.6481 14.1035C91.8299 13.5017 90.824 13.3948 89.6302 13.7828C88.6574 14.099 88.0318 14.6567 87.7532 15.4561C87.4747 16.2555 87.4913 17.1362 87.803 18.0981C88.1183 19.0711 88.6231 19.7992 89.3172 20.2824C90.0114 20.7657 90.8449 20.8492 91.8176 20.533C93.0225 20.1414 93.7722 19.4577 94.0669 18.482ZM88.752 21.3094C87.7651 20.6769 87.0674 19.7304 86.659 18.47C86.2505 17.2095 86.262 16.0386 86.6936 14.9573C87.1362 13.8724 87.9986 13.1215 89.2808 12.7048C89.7893 12.5395 90.3209 12.4645 90.8756 12.4797C91.4378 12.4803 91.9148 12.5759 92.3064 12.7663L92.1264 11.8716L93.088 11.559L95.9204 20.2994L94.9588 20.612L94.5798 19.7819C94.3709 20.1553 94.0409 20.5131 93.5898 20.8553C93.1386 21.1975 92.6644 21.4494 92.1669 21.6111C90.8847 22.0278 89.7464 21.9273 88.752 21.3094Z" fill="#211E1F"/>
<path d="M96.782 20.3168L94.7166 11.3461L102.072 9.64751L104.138 18.6181L102.965 18.8888L101.154 11.0225L96.1599 12.1759L97.9711 20.0422L96.782 20.3168Z" fill="#211E1F"/>
<path d="M106.89 17.6118L105.619 8.49458L106.811 8.32804L107.8 15.425L112.043 7.59674L113.148 7.44228L114.418 16.5595L113.21 16.7285L112.228 9.68332L107.995 17.4573L106.89 17.6118Z" fill="#211E1F"/>
<path d="M120.493 16.7374C119.102 16.8298 117.957 16.4655 117.06 15.6444C116.173 14.811 115.69 13.7039 115.61 12.3231C115.53 10.9306 115.87 9.77573 116.632 8.85834C117.406 7.94027 118.512 7.44529 119.952 7.3734C121.067 7.33197 122.02 7.5095 122.812 7.90599L122.312 8.93041C121.677 8.618 120.924 8.47543 120.052 8.50272C118.937 8.55576 118.103 8.92434 117.549 9.60848C116.995 10.2926 116.749 11.1742 116.811 12.2534C116.873 13.3209 117.225 14.1679 117.866 14.7942C118.519 15.4083 119.384 15.6783 120.463 15.6041C121.298 15.5556 122.03 15.3268 122.658 14.9178L123.273 15.8776C122.533 16.363 121.606 16.6496 120.493 16.7374Z" fill="#211E1F"/>
<path d="M127.068 14.9187L129.769 14.9814C130.28 14.9933 130.685 14.8283 130.984 14.4864C131.294 14.1448 131.455 13.7242 131.466 13.2245C131.478 12.7249 131.337 12.2973 131.043 11.9417C130.76 11.5863 130.352 11.4025 129.817 11.3901L127.151 11.3282L127.068 14.9187ZM125.839 16.0238L126.052 6.82087L127.254 6.84877L127.177 10.1778L129.844 10.2397C130.727 10.2602 131.423 10.5612 131.933 11.1427C132.443 11.7242 132.688 12.4274 132.669 13.2524C132.65 14.0775 132.372 14.7686 131.836 15.3258C131.312 15.8717 130.614 16.1345 129.743 16.1143L125.839 16.0238Z" fill="#211E1F"/>
<path d="M155.896 20.483C154.761 20.1423 153.878 19.586 153.248 18.8143L154.068 18.0778C154.551 18.6958 155.291 19.1423 156.288 19.4174C156.926 19.5967 157.491 19.6146 157.983 19.4709C158.486 19.3306 158.817 18.9933 158.977 18.4588C159.277 17.4566 158.692 16.735 157.223 16.294L155.77 15.858L156.08 14.8224L157.516 15.2534C157.983 15.3938 158.427 15.4116 158.847 15.3069C159.281 15.1945 159.576 14.9373 159.733 14.5353C159.895 14.0743 159.831 13.679 159.541 13.3494C159.252 13.0198 158.825 12.7642 158.26 12.5827C157.303 12.2954 156.475 12.2653 155.776 12.4924L155.555 11.4067C156.511 11.1718 157.479 11.2013 158.458 11.4953C159.356 11.7403 160.05 12.1552 160.543 12.7398C161.038 13.3133 161.154 14.0031 160.888 14.8093C160.78 15.1288 160.558 15.4262 160.221 15.7012C159.895 15.9795 159.547 16.1482 159.178 16.2072C159.602 16.4923 159.906 16.8748 160.09 17.3548C160.274 17.8347 160.299 18.2974 160.166 18.7428C159.903 19.6224 159.366 20.2015 158.554 20.4798C157.754 20.7615 156.868 20.7626 155.896 20.483Z" fill="#211E1F"/>
<path d="M168.738 21.7612L170.401 17.4695C170.146 16.4853 169.434 15.7658 168.264 15.311C167.311 14.9404 166.474 14.9768 165.754 15.4201C165.034 15.8634 164.491 16.5565 164.125 17.4994C163.756 18.4531 163.688 19.3369 163.921 20.1507C164.154 20.9646 164.747 21.5568 165.7 21.9273C166.881 22.3863 167.894 22.3309 168.738 21.7612ZM162.835 20.589C162.469 19.4742 162.525 18.299 163.004 17.0636C163.483 15.8281 164.231 14.9278 165.247 14.3628C166.275 13.802 167.417 13.7659 168.674 14.2543C169.172 14.448 169.631 14.7263 170.052 15.0892C170.487 15.4455 170.796 15.8213 170.98 16.2168L171.405 15.4094L172.347 15.7757L169.027 24.3428L168.085 23.9765L168.315 23.0932C167.917 23.2505 167.436 23.319 166.87 23.2987C166.305 23.2784 165.778 23.1735 165.291 22.984C164.034 22.4955 163.215 21.6972 162.835 20.589Z" fill="#211E1F"/>
<path d="M169.061 24.9088L173.11 16.6415L179.886 19.9697L175.837 28.237L174.757 27.7066L178.307 20.4571L173.707 18.1973L170.156 25.4468L169.061 24.9088Z" fill="#211E1F"/>
<path d="M178.171 29.5712L182.935 21.6945L183.964 22.3185L180.255 28.4498L188.48 25.0584L189.434 25.6371L184.67 33.5138L183.627 32.8808L187.308 26.7943L179.125 30.15L178.171 29.5712Z" fill="#211E1F"/>
<path d="M190.111 37.3159C188.973 36.5082 188.316 35.5022 188.138 34.298C187.976 33.0911 188.3 31.9266 189.109 30.8046C189.924 29.6731 190.916 28.9921 192.085 28.7616C193.264 28.5379 194.434 28.853 195.595 29.7068C196.486 30.3793 197.113 31.1195 197.476 31.9272L196.443 32.4065C196.148 31.7628 195.653 31.1761 194.961 30.6465C194.063 29.9834 193.184 29.7422 192.323 29.9229C191.462 30.1037 190.716 30.6325 190.083 31.5094C189.458 32.3768 189.197 33.2563 189.299 34.1479C189.418 35.0368 189.919 35.7932 190.801 36.417C191.48 36.9073 192.191 37.1922 192.936 37.2719L192.807 38.4049C191.927 38.3138 191.028 37.9508 190.111 37.3159Z" fill="#211E1F"/>
<path d="M196.204 39.8908L198.261 41.6444C198.65 41.9762 199.068 42.1036 199.515 42.0266C199.97 41.957 200.36 41.7319 200.684 41.3512C201.008 40.9704 201.168 40.5492 201.164 40.0874C201.168 39.6332 200.967 39.2327 200.561 38.8857L198.531 37.1548L196.204 39.8908ZM194.555 39.9735L200.518 32.9607L201.434 33.7414L199.276 36.2782L201.306 38.0091C201.978 38.5824 202.329 39.2556 202.358 40.0289C202.387 40.8022 202.134 41.5031 201.599 42.1318C201.065 42.7605 200.414 43.122 199.647 43.2165C198.897 43.3096 198.19 43.0734 197.526 42.5077L194.555 39.9735Z" fill="#211E1F"/>
<path d="M214.824 62.1683C214.152 61.1915 213.812 60.2048 213.803 59.2081L214.904 59.1474C214.893 59.9315 215.191 60.7431 215.796 61.5821C216.181 62.1213 216.61 62.4889 217.084 62.6847C217.564 62.8902 218.033 62.8345 218.492 62.5176C219.353 61.9235 219.349 60.9945 218.479 59.7305L217.62 58.4809L218.509 57.867L219.359 59.1022C219.636 59.5044 219.971 59.796 220.363 59.977C220.772 60.161 221.163 60.1452 221.537 59.9297C221.952 59.6716 222.149 59.3233 222.13 58.8849C222.111 58.4464 221.938 57.9797 221.611 57.4848C221.045 56.6613 220.418 56.1194 219.731 55.8591L220.238 54.8737C221.13 55.2888 221.866 55.9178 222.446 56.7604C222.992 57.5133 223.274 58.2718 223.292 59.0361C223.32 59.7938 222.978 60.4041 222.266 60.8668C221.982 61.0486 221.623 61.1413 221.188 61.1449C220.759 61.158 220.383 61.0719 220.058 60.8867C220.21 61.3746 220.208 61.8634 220.051 62.353C219.894 62.8426 219.624 63.2194 219.241 63.4835C218.486 64.0049 217.704 64.1203 216.898 63.8297C216.098 63.5485 215.406 62.9947 214.824 62.1683Z" fill="#211E1F"/>
<path d="M223.246 71.9943L227.233 69.6946C227.652 68.7684 227.549 67.7613 226.923 66.6731C226.413 65.7864 225.739 65.2899 224.9 65.1834C224.061 65.0769 223.203 65.2762 222.327 65.7814C221.441 66.2925 220.834 66.9381 220.505 67.7182C220.176 68.4984 220.266 69.3318 220.776 70.2184C221.408 71.3167 222.231 71.9086 223.246 71.9943ZM219.384 67.3784C219.799 66.2806 220.58 65.4006 221.728 64.7386C222.875 64.0766 224.022 63.8444 225.169 64.0421C226.32 64.2499 227.232 64.9381 227.905 66.1069C228.171 66.5704 228.354 67.0753 228.454 67.6216C228.569 68.1722 228.574 68.659 228.469 69.082L229.307 68.7197L229.811 69.5963L221.852 74.187L221.348 73.3104L222.081 72.7667C221.673 72.6399 221.255 72.3912 220.827 72.0206C220.4 71.65 220.055 71.238 219.795 70.7846C219.122 69.6159 218.986 68.4804 219.384 67.3784Z" fill="#211E1F"/>
<path d="M223.028 73.8942L231.364 69.9901L234.558 76.8303L226.222 80.7344L225.713 79.6444L233.023 76.2209L230.854 71.5765L223.544 75L223.028 73.8942Z" fill="#211E1F"/>
<path d="M226.538 84.0554L235.191 80.9147L235.6 82.0459L228.865 84.4906L237.398 87.0132L237.778 88.0624L229.125 91.2032L228.709 90.0556L235.396 87.6286L226.918 85.1046L226.538 84.0554Z" fill="#211E1F"/>
<path d="M230.93 97.5937C230.555 96.2504 230.677 95.0551 231.297 94.0078C231.93 92.9686 232.915 92.2679 234.25 91.9056C235.596 91.5403 236.796 91.6361 237.849 92.1932C238.906 92.7614 239.617 93.7427 239.983 95.1369C240.252 96.2201 240.273 97.1898 240.047 98.0459L238.942 97.7677C239.118 97.0817 239.103 96.315 238.898 95.4674C238.618 94.3873 238.086 93.6464 237.303 93.2447C236.52 92.843 235.607 92.7837 234.564 93.0668C233.532 93.3469 232.775 93.8654 232.294 94.6223C231.826 95.3874 231.74 96.2902 232.033 97.3305C232.252 98.1383 232.625 98.8077 233.154 99.3385L232.341 100.137C231.714 99.5126 231.244 98.6647 230.93 97.5937Z" fill="#211E1F"/>
<path d="M233.849 102.159L234.354 104.813C234.45 105.316 234.696 105.677 235.093 105.897C235.492 106.128 235.937 106.197 236.428 106.103C236.919 106.01 237.307 105.782 237.593 105.419C237.881 105.068 237.975 104.63 237.875 104.105L237.376 101.485L233.849 102.159ZM232.51 101.19L241.552 99.4624L241.777 100.644L238.506 101.269L239.006 103.889C239.171 104.757 239.023 105.501 238.561 106.122C238.1 106.743 237.463 107.13 236.653 107.285C235.842 107.44 235.108 107.314 234.451 106.907C233.808 106.509 233.404 105.882 233.241 105.026L232.51 101.19Z" fill="#211E1F"/>
<path d="M234.652 132.351C234.748 131.169 235.107 130.19 235.73 129.412L236.622 130.062C236.118 130.663 235.836 131.479 235.776 132.512C235.734 133.173 235.835 133.73 236.078 134.181C236.32 134.644 236.72 134.898 237.276 134.943C238.318 135.028 238.902 134.306 239.025 132.776L239.148 131.265L240.225 131.352L240.104 132.847C240.065 133.333 240.14 133.771 240.33 134.159C240.531 134.56 240.844 134.796 241.27 134.865C241.755 134.928 242.128 134.784 242.39 134.432C242.651 134.08 242.812 133.609 242.871 133.019C242.952 132.023 242.808 131.206 242.44 130.57L243.456 130.128C243.885 131.014 244.059 131.967 243.976 132.986C243.924 133.915 243.664 134.681 243.195 135.284C242.738 135.889 242.088 136.145 241.244 136.053C240.909 136.014 240.571 135.858 240.232 135.586C239.892 135.325 239.654 135.02 239.519 134.671C239.329 135.145 239.019 135.522 238.588 135.802C238.157 136.082 237.71 136.203 237.247 136.165C236.331 136.091 235.653 135.686 235.211 134.95C234.768 134.226 234.582 133.36 234.652 132.351Z" fill="#211E1F"/>
<path d="M235.178 144.989L239.723 145.714C240.631 145.258 241.183 144.411 241.38 143.171C241.541 142.161 241.328 141.35 240.743 140.739C240.158 140.128 239.366 139.742 238.367 139.583C237.357 139.422 236.479 139.541 235.733 139.94C234.987 140.339 234.534 141.044 234.373 142.054C234.174 143.305 234.442 144.283 235.178 144.989ZM235.075 138.97C236.087 138.378 237.247 138.187 238.556 138.395C239.864 138.604 240.902 139.146 241.669 140.021C242.434 140.908 242.711 142.018 242.499 143.349C242.416 143.877 242.241 144.385 241.975 144.872C241.719 145.373 241.417 145.754 241.069 146.017L241.948 146.263L241.789 147.261L232.716 145.815L232.875 144.816L233.787 144.856C233.549 144.5 233.38 144.043 233.28 143.486C233.181 142.929 233.172 142.392 233.254 141.875C233.466 140.544 234.073 139.575 235.075 138.97Z" fill="#211E1F"/>
<path d="M233.185 146.29L242.113 148.532L240.28 155.855L231.351 153.613L231.644 152.446L239.473 154.412L240.717 149.44L232.888 147.474L233.185 146.29Z" fill="#211E1F"/>
<path d="M230.326 156.373L239.025 159.383L238.633 160.52L231.861 158.177L236.91 165.514L236.546 166.569L227.847 163.559L228.245 162.405L234.967 164.731L229.962 157.428L230.326 156.373Z" fill="#211E1F"/>
<path d="M225.038 169.606C225.589 168.325 226.434 167.472 227.573 167.047C228.718 166.638 229.924 166.713 231.189 167.271C232.465 167.834 233.338 168.664 233.808 169.761C234.273 170.868 234.21 172.079 233.619 173.393C233.148 174.405 232.556 175.173 231.843 175.697L231.159 174.785C231.726 174.362 232.196 173.756 232.568 172.968C233.028 171.951 233.08 171.04 232.723 170.235C232.366 169.429 231.693 168.808 230.705 168.372C229.726 167.94 228.812 167.867 227.963 168.153C227.119 168.454 226.485 169.102 226.06 170.096C225.723 170.862 225.594 171.618 225.672 172.364L224.538 172.473C224.443 171.592 224.61 170.637 225.038 169.606Z" fill="#211E1F"/>
<path d="M223.768 175.081L222.49 177.462C222.249 177.913 222.213 178.349 222.382 178.77C222.547 179.202 222.849 179.536 223.289 179.773C223.729 180.009 224.174 180.077 224.624 179.976C225.068 179.885 225.417 179.604 225.67 179.133L226.931 176.783L223.768 175.081ZM223.339 173.484L231.445 177.846L230.876 178.906L227.944 177.328L226.683 179.679C226.265 180.457 225.682 180.942 224.933 181.133C224.185 181.324 223.447 181.224 222.72 180.833C221.993 180.442 221.503 179.881 221.249 179.15C220.999 178.435 221.08 177.693 221.493 176.925L223.339 173.484Z" fill="#211E1F"/>
<path d="M205.81 198.557C206.626 197.697 207.52 197.161 208.492 196.947L208.778 198.013C208.01 198.164 207.278 198.623 206.583 199.389C206.135 199.878 205.864 200.374 205.77 200.879C205.668 201.391 205.82 201.84 206.224 202.225C206.981 202.946 207.888 202.75 208.944 201.637L209.988 200.537L210.771 201.282L209.739 202.37C209.403 202.724 209.187 203.112 209.091 203.534C208.996 203.972 209.091 204.352 209.379 204.674C209.717 205.028 210.098 205.15 210.522 205.04C210.946 204.931 211.367 204.665 211.783 204.243C212.471 203.518 212.872 202.792 212.985 202.065L214.052 202.359C213.83 203.319 213.367 204.17 212.663 204.912C212.04 205.602 211.356 206.035 210.613 206.21C209.879 206.393 209.212 206.184 208.613 205.582C208.377 205.341 208.213 205.008 208.12 204.583C208.019 204.166 208.025 203.779 208.139 203.422C207.694 203.672 207.216 203.771 206.705 203.718C206.195 203.665 205.771 203.478 205.434 203.158C204.769 202.525 204.495 201.783 204.613 200.933C204.723 200.091 205.122 199.299 205.81 198.557Z" fill="#211E1F"/>
<path d="M198.709 209.359L201.792 212.777C202.784 212.993 203.745 212.679 204.676 211.837C205.435 211.151 205.778 210.386 205.706 209.543C205.634 208.699 205.259 207.902 204.582 207.151C203.897 206.391 203.139 205.932 202.308 205.775C201.478 205.617 200.683 205.881 199.925 206.568C198.985 207.417 198.58 208.348 198.709 209.359ZM202.405 204.606C203.564 204.78 204.587 205.36 205.474 206.344C206.362 207.328 206.829 208.401 206.877 209.565C206.916 210.737 206.435 211.774 205.435 212.679C205.039 213.037 204.584 213.323 204.072 213.536C203.559 213.765 203.084 213.873 202.649 213.859L203.179 214.602L202.429 215.28L196.276 208.457L197.026 207.779L197.711 208.382C197.749 207.956 197.904 207.494 198.176 206.997C198.448 206.501 198.778 206.077 199.166 205.726C200.166 204.822 201.245 204.448 202.405 204.606Z" fill="#211E1F"/>
<path d="M195.387 208.966L200.932 216.314L194.912 220.87L189.368 213.522L190.327 212.796L195.189 219.24L199.276 216.146L194.414 209.703L195.387 208.966Z" fill="#211E1F"/>
<path d="M187.081 215.334L191.96 223.14L190.941 223.779L187.143 217.703L186.465 226.585L185.52 227.178L180.641 219.372L181.675 218.724L185.445 224.755L186.136 215.927L187.081 215.334Z" fill="#211E1F"/>
<path d="M174.659 222.281C175.891 221.628 177.084 221.493 178.238 221.876C179.387 222.275 180.279 223.089 180.915 224.317C181.556 225.556 181.716 226.75 181.394 227.899C181.063 229.053 180.255 229.957 178.97 230.611C177.969 231.105 177.027 231.332 176.143 231.293L176.181 230.153C176.888 230.179 177.634 230.002 178.418 229.621C179.414 229.117 180.025 228.439 180.252 227.588C180.479 226.737 180.344 225.832 179.847 224.872C179.356 223.922 178.689 223.292 177.849 222.982C177.003 222.688 176.103 222.795 175.149 223.303C174.406 223.689 173.831 224.197 173.424 224.827L172.472 224.202C172.95 223.456 173.679 222.816 174.659 222.281Z" fill="#211E1F"/>
<path d="M170.995 225.245L168.507 226.299C168.036 226.499 167.735 226.816 167.603 227.25C167.46 227.689 167.486 228.139 167.68 228.6C167.875 229.06 168.179 229.392 168.593 229.595C168.996 229.803 169.444 229.803 169.936 229.594L172.392 228.554L170.995 225.245ZM171.662 223.732L175.243 232.212L174.136 232.681L172.84 229.614L170.384 230.654C169.571 230.999 168.812 231.011 168.109 230.69C167.406 230.369 166.894 229.829 166.573 229.069C166.252 228.309 166.221 227.564 166.481 226.835C166.735 226.122 167.263 225.595 168.066 225.255L171.662 223.732Z" fill="#211E1F"/>
<circle cx="219" cy="190" r="2" transform="rotate(90 219 190)" fill="#211E1F"/>
<circle cx="149" cy="236" r="2" transform="rotate(90 149 236)" fill="#211E1F"/>
<circle cx="65" cy="220" r="2" transform="rotate(90 65 220)" fill="#211E1F"/>
<circle cx="19" cy="160" r="2" transform="rotate(90 19 160)" fill="#211E1F"/>
<circle cx="22" cy="83" r="2" transform="rotate(90 22 83)" fill="#211E1F"/>
<circle cx="69" cy="27" r="2" transform="rotate(90 69 27)" fill="#211E1F"/>
<circle cx="144" cy="12" r="2" transform="rotate(90 144 12)" fill="#211E1F"/>
<circle cx="211" cy="48" r="2" transform="rotate(90 211 48)" fill="#211E1F"/>
<circle cx="240" cy="117" r="2" transform="rotate(90 240 117)" fill="#211E1F"/>
</svg>
