<svg width="114" height="114" viewBox="0 0 114 114" fill="none" xmlns="http://www.w3.org/2000/svg">
<path d="M55.7368 106.221C56.2739 106.237 56.7255 106.378 57.0916 106.642L56.8178 107.061C56.5345 106.846 56.1584 106.737 55.6894 106.733C55.3891 106.729 55.1396 106.787 54.9408 106.908C54.7368 107.028 54.6309 107.214 54.6231 107.467C54.6085 107.941 54.9488 108.189 55.6438 108.21L56.331 108.231L56.3159 108.721L55.6366 108.7C55.4155 108.693 55.2191 108.737 55.0475 108.832C54.8705 108.932 54.7711 109.079 54.7493 109.274C54.7319 109.494 54.8059 109.66 54.9711 109.771C55.1364 109.881 55.3532 109.943 55.6216 109.957C56.0744 109.971 56.4407 109.887 56.7204 109.706L56.9437 110.156C56.5523 110.37 56.1249 110.47 55.6615 110.456C55.24 110.454 54.8873 110.353 54.6035 110.155C54.3196 109.961 54.1888 109.673 54.2112 109.289C54.2212 109.136 54.284 108.98 54.3996 108.82C54.5099 108.66 54.6426 108.546 54.7976 108.477C54.5785 108.401 54.4007 108.269 54.2643 108.081C54.1278 107.892 54.0628 107.692 54.0693 107.482C54.0821 107.066 54.25 106.749 54.5729 106.533C54.8906 106.316 55.2785 106.212 55.7368 106.221Z" fill="white"/>
<path d="M50.0259 106.991L49.8015 109.065C50.0283 109.465 50.4246 109.697 50.9902 109.758C51.4511 109.808 51.8132 109.694 52.0766 109.415C52.3399 109.136 52.4962 108.769 52.5455 108.313C52.5954 107.852 52.5215 107.457 52.3239 107.129C52.1264 106.8 51.7971 106.61 51.3362 106.56C50.7653 106.498 50.3286 106.642 50.0259 106.991ZM52.748 106.809C53.039 107.254 53.1522 107.775 53.0876 108.372C53.023 108.969 52.8013 109.451 52.4224 109.818C52.0383 110.184 51.5425 110.335 50.935 110.269C50.6941 110.243 50.4603 110.175 50.2337 110.065C50.0012 109.961 49.8217 109.833 49.695 109.681L49.6037 110.084L49.148 110.035L49.596 105.895L50.0517 105.944L50.0546 106.358C50.2102 106.242 50.413 106.156 50.663 106.098C50.9129 106.04 51.1558 106.024 51.3915 106.05C51.999 106.116 52.4512 106.369 52.748 106.809Z" fill="white"/>
<path d="M48.9339 105.889L48.122 109.982L44.766 109.314L45.5779 105.221L46.1127 105.328L45.4008 108.917L47.6794 109.37L48.3913 105.781L48.9339 105.889Z" fill="white"/>
<path d="M44.8003 105.02L43.6345 109.026L43.1111 108.873L44.0186 105.754L40.8126 108.202L40.3271 108.06L41.4929 104.054L42.0239 104.209L41.123 107.305L44.3148 104.878L44.8003 105.02Z" fill="white"/>
<path d="M38.3049 102.664C38.8969 102.885 39.3017 103.25 39.5193 103.757C39.7301 104.267 39.7233 104.815 39.4989 105.4C39.2727 105.99 38.9168 106.404 38.4311 106.64C37.9406 106.875 37.3914 106.873 36.7835 106.634C36.3152 106.442 35.9546 106.191 35.7017 105.879L36.0989 105.549C36.303 105.797 36.5875 105.997 36.9526 106.148C37.4228 106.335 37.8361 106.338 38.1924 106.159C38.5488 105.98 38.8146 105.662 38.99 105.204C39.1634 104.752 39.176 104.336 39.0278 103.957C38.8727 103.582 38.5656 103.308 38.1064 103.138C37.7523 103.001 37.4074 102.959 37.0717 103.011L36.9969 102.499C37.3931 102.437 37.8291 102.492 38.3049 102.664Z" fill="white"/>
<path d="M35.8658 102.456L34.7605 101.928C34.5513 101.828 34.3533 101.821 34.1665 101.907C33.975 101.991 33.8305 102.135 33.7332 102.339C33.6358 102.544 33.615 102.747 33.6706 102.949C33.7216 103.148 33.8564 103.3 34.0751 103.404L35.1662 103.925L35.8658 102.456ZM36.5786 102.227L34.7854 105.994L34.2933 105.759L34.942 104.396L33.8509 103.875C33.4896 103.703 33.2574 103.449 33.1544 103.114C33.0515 102.779 33.0803 102.442 33.2411 102.104C33.4019 101.767 33.6447 101.532 33.9696 101.401C34.2874 101.273 34.6247 101.294 34.9812 101.464L36.5786 102.227Z" fill="white"/>
<path d="M24.7201 94.6552C25.1264 95.0069 25.3884 95.4008 25.506 95.8371L25.03 95.9895C24.9452 95.6443 24.722 95.3223 24.3606 95.0234C24.1301 94.8309 23.8999 94.7187 23.6699 94.6868C23.4359 94.6515 23.2363 94.7296 23.0711 94.9211C22.7614 95.28 22.8694 95.6871 23.3952 96.1422L23.915 96.5921L23.5949 96.963L23.0811 96.5183C22.9138 96.3735 22.7337 96.2838 22.5408 96.2492C22.3405 96.2152 22.1707 96.2668 22.0314 96.4041C21.8789 96.5647 21.832 96.7401 21.8906 96.9302C21.9492 97.1202 22.0784 97.3052 22.2781 97.485C22.6207 97.7815 22.9575 97.9476 23.2885 97.9833L23.1787 98.4735C22.7399 98.3933 22.3452 98.2015 21.9947 97.8981C21.6691 97.6303 21.4588 97.3298 21.3636 96.9966C21.265 96.6673 21.3453 96.3606 21.6045 96.0763C21.7083 95.9641 21.8554 95.8824 22.0457 95.8311C22.2321 95.7765 22.4071 95.7712 22.5708 95.8153C22.4483 95.6187 22.3934 95.404 22.4063 95.1713C22.4193 94.9386 22.4946 94.7425 22.6322 94.583C22.9041 94.2679 23.2336 94.128 23.6206 94.1634C24.0036 94.1953 24.3701 94.3592 24.7201 94.6552Z" fill="white"/>
<path d="M20.2463 91.5035L18.7669 92.9744C18.6908 93.4289 18.853 93.8582 19.2536 94.2623C19.58 94.5916 19.9331 94.7308 20.313 94.68C20.6928 94.6292 21.0453 94.4422 21.3703 94.119C21.6991 93.7921 21.8902 93.4387 21.9437 93.0586C21.9972 92.6786 21.8608 92.3239 21.5344 91.9946C21.1301 91.5868 20.7008 91.4231 20.2463 91.5035ZM22.4741 93.0773C22.4201 93.6065 22.1801 94.0828 21.7542 94.5063C21.3283 94.9297 20.8528 95.1647 20.3278 95.2113C19.7991 95.2541 19.3196 95.0585 18.8893 94.6245C18.7187 94.4524 18.5799 94.2524 18.4727 94.0246C18.3582 93.7968 18.2994 93.5841 18.2964 93.3865L17.9716 93.6425L17.6489 93.317L20.6022 90.3808L20.9249 90.7063L20.6668 91.0297C20.8604 91.0378 21.0723 91.0982 21.3027 91.2109C21.5331 91.3236 21.7317 91.4641 21.8986 91.6325C22.3289 92.0665 22.5207 92.5481 22.4741 93.0773Z" fill="white"/>
<path d="M20.0482 89.8224L16.8442 92.4952L14.6561 89.8644L17.8601 87.1917L18.2088 87.6109L15.3992 89.9546L16.8849 91.7408L19.6944 89.3971L20.0482 89.8224Z" fill="white"/>
<path d="M17.1463 86.4581L13.7295 88.8529L13.4172 88.4059L16.0768 86.5418L12.0457 86.4432L11.756 86.0287L15.1727 83.6339L15.4896 84.0873L12.8494 85.9378L16.8566 86.0435L17.1463 86.4581Z" fill="white"/>
<path d="M13.4994 80.849C13.8211 81.3932 13.9077 81.931 13.7591 82.4624C13.6033 82.9918 13.2544 83.4142 12.7125 83.7294C12.1661 84.0473 11.6296 84.1461 11.103 84.0257C10.5738 83.9008 10.1476 83.5545 9.82445 82.9868C9.57981 82.544 9.4568 82.1219 9.4554 81.7204L9.97161 81.7127C9.97509 82.0337 10.0714 82.3677 10.2605 82.7148C10.5097 83.155 10.8292 83.4171 11.219 83.5012C11.6088 83.5852 12.0155 83.5041 12.439 83.2577C12.8579 83.014 13.1285 82.6982 13.2506 82.3102C13.3655 81.9203 13.2978 81.5148 13.0474 81.0936C12.8571 80.7655 12.6151 80.5162 12.3214 80.3458L12.5839 79.9006C12.9313 80.1007 13.2365 80.4168 13.4994 80.849Z" fill="white"/>
<path d="M11.7851 79.1467L11.2546 78.0427C11.1542 77.8337 11.0043 77.7042 10.8049 77.6541C10.6032 77.5993 10.4003 77.6211 10.1962 77.7194C9.99214 77.8178 9.84858 77.963 9.76554 78.1551C9.68021 78.3424 9.69004 78.5453 9.795 78.7637L10.3187 79.8535L11.7851 79.1467ZM12.484 79.4151L8.72539 81.2267L8.48922 80.7353L9.84887 80.0799L9.32517 78.9902C9.15175 78.6293 9.12997 78.286 9.25982 77.9602C9.38968 77.6344 9.62308 77.3904 9.96003 77.228C10.297 77.0655 10.6331 77.0351 10.9683 77.1367C11.2965 77.2359 11.5462 77.4635 11.7173 77.8196L12.484 79.4151Z" fill="white"/>
<path d="M8.06313 65.9916C8.15963 66.5202 8.11709 66.9913 7.93552 67.4048L7.46894 67.2251C7.61901 66.9031 7.64676 66.5124 7.5522 66.053C7.49309 65.7585 7.38384 65.5268 7.22447 65.3578C7.06415 65.1837 6.85962 65.1194 6.61088 65.1649C6.14449 65.2503 5.97374 65.635 6.09862 66.3192L6.22208 66.9955L5.74015 67.0837L5.6181 66.4152C5.57837 66.1975 5.49413 66.0148 5.3654 65.8669C5.23054 65.7149 5.06582 65.6486 4.87124 65.6682C4.6517 65.6977 4.50525 65.8048 4.43188 65.9897C4.35851 66.1745 4.34336 66.3995 4.38643 66.6648C4.46779 67.1105 4.62635 67.451 4.8621 67.6863L4.46938 67.9993C4.17749 67.6617 3.98991 67.2649 3.90666 66.8089C3.82061 66.3961 3.84484 66.0302 3.97936 65.711C4.1087 65.3927 4.36346 65.2042 4.74365 65.1453C4.89487 65.1229 5.06074 65.1515 5.24126 65.2309C5.42082 65.3051 5.5606 65.4108 5.66058 65.5478C5.68822 65.3178 5.77995 65.1162 5.93578 64.9431C6.09161 64.7699 6.27316 64.6644 6.48045 64.6264C6.88983 64.5515 7.23432 64.6491 7.51392 64.9192C7.79256 65.1842 7.97563 65.5417 8.06313 65.9916Z" fill="white"/>
<path d="M6.05993 60.9327L3.98503 61.1498C3.64089 61.4559 3.49834 61.892 3.55737 62.4579C3.60547 62.919 3.7935 63.2489 4.12145 63.4477C4.4494 63.6464 4.84129 63.7219 5.29714 63.6743C5.75823 63.626 6.1287 63.4707 6.40855 63.2084C6.6884 62.946 6.80427 62.5843 6.75617 62.1232C6.69659 61.5521 6.46451 61.1552 6.05993 60.9327ZM6.81026 63.5557C6.43655 63.9338 5.95103 64.1541 5.35372 64.2166C4.7564 64.2791 4.23852 64.1638 3.80009 63.8706C3.36111 63.5722 3.10991 63.1191 3.04651 62.5113C3.02136 62.2703 3.03841 62.0275 3.09765 61.7829C3.1511 61.5337 3.23856 61.3312 3.36003 61.1755L2.94642 61.1711L2.89887 60.7152L7.0408 60.2818L7.08836 60.7377L6.68459 60.8276C6.83033 60.9554 6.9577 61.1354 7.06668 61.3677C7.17565 61.5999 7.24244 61.834 7.26704 62.0697C7.33044 62.6776 7.17818 63.1729 6.81026 63.5557Z" fill="white"/>
<path d="M7.06049 59.6221L2.88854 59.6866L2.83579 56.2653L7.00774 56.2008L7.01615 56.746L3.35779 56.8026L3.39361 59.1256L7.05196 59.069L7.06049 59.6221Z" fill="white"/>
<path d="M7.10729 54.5912L2.94608 54.2852L2.98595 53.7414L6.22507 53.9796L3.16102 51.3534L3.198 50.849L7.35921 51.155L7.31877 51.7067L4.10329 51.4702L7.14427 54.0868L7.10729 54.5912Z" fill="white"/>
<path d="M7.86617 48.4447C7.77453 49.0703 7.50404 49.5427 7.0547 49.862C6.60096 50.1754 6.06436 50.2839 5.44488 50.1875C4.82019 50.0904 4.34089 49.8293 4.00695 49.4042C3.67382 48.9738 3.5599 48.4363 3.66518 47.7915C3.75306 47.2934 3.92255 46.8879 4.17363 46.575L4.57998 46.8941C4.38103 47.1458 4.24609 47.466 4.17515 47.8548C4.09247 48.3538 4.17631 48.7587 4.42667 49.0696C4.67703 49.3804 5.04428 49.5734 5.52841 49.6487C6.00733 49.7232 6.41614 49.6481 6.75483 49.4235C7.08912 49.1929 7.29119 48.8352 7.36104 48.3502C7.41914 47.9754 7.3875 47.6292 7.26611 47.3118L7.74994 47.1311C7.89449 47.5054 7.93324 47.9433 7.86617 48.4447Z" fill="white"/>
<path d="M7.99156 45.7712L8.27546 44.5797C8.32918 44.3542 8.29445 44.159 8.17126 43.9942C8.04929 43.8242 7.87814 43.7129 7.65781 43.6602C7.43748 43.6076 7.23458 43.6295 7.04911 43.726C6.86487 43.8174 6.74466 43.9809 6.68849 44.2167L6.40826 45.3928L7.99156 45.7712ZM8.36476 46.421L4.30659 45.4512L4.43297 44.9208L5.90099 45.2716L6.18122 44.0954C6.27402 43.706 6.47343 43.4259 6.77945 43.2553C7.08548 43.0847 7.42039 43.0429 7.78419 43.1298C8.14799 43.2167 8.42795 43.4055 8.62408 43.6961C8.8163 43.9804 8.86662 44.3147 8.77504 44.6991L8.36476 46.421Z" fill="white"/>
<path d="M12.9401 33.2019C12.6826 33.6735 12.3533 34.0127 11.9522 34.2196L11.7029 33.7857C12.022 33.6301 12.2893 33.344 12.5047 32.9274C12.644 32.6613 12.7049 32.4124 12.6874 32.1805C12.6725 31.9441 12.5541 31.7652 12.3323 31.6437C11.9164 31.4159 11.5419 31.6072 11.2086 32.2176L10.8791 32.821L10.4494 32.5857L10.7751 31.9892C10.8811 31.795 10.9307 31.5999 10.9236 31.4038C10.9145 31.2006 10.8283 31.0453 10.6649 30.9378C10.4759 30.8223 10.2948 30.8132 10.1216 30.9105C9.94837 31.0079 9.79508 31.1732 9.6617 31.4065C9.44458 31.8041 9.35354 32.1687 9.38861 32.5003L8.88686 32.4958C8.87247 32.0494 8.97636 31.6228 9.19853 31.2159C9.39127 30.8409 9.64023 30.5718 9.94544 30.4086C10.246 30.2429 10.5624 30.257 10.8947 30.451C11.0262 30.529 11.137 30.6557 11.2273 30.8313C11.32 31.0022 11.3621 31.1724 11.3536 31.342C11.5197 31.1807 11.7177 31.0819 11.9476 31.0456C12.1775 31.0093 12.3848 31.0418 12.5697 31.143C12.9347 31.3429 13.1408 31.636 13.188 32.0222C13.2378 32.4038 13.1551 32.7971 12.9401 33.2019Z" fill="white"/>
<path d="M14.8026 28.2264L13.0556 27.086C12.5959 27.1067 12.2108 27.3555 11.9004 27.8323C11.6475 28.2209 11.5858 28.5958 11.7152 28.9571C11.8446 29.3184 12.1012 29.6244 12.485 29.8749C12.8732 30.1283 13.2585 30.2414 13.6408 30.2142C14.0231 30.1869 14.3407 29.979 14.5936 29.5905C14.9068 29.1092 14.9765 28.6545 14.8026 28.2264ZM13.7339 30.7374C13.2059 30.7954 12.6905 30.6602 12.1876 30.3319C11.6847 30.0036 11.3553 29.5873 11.1996 29.083C11.0467 28.5742 11.1369 28.0637 11.4703 27.5516C11.6025 27.3485 11.7685 27.1706 11.9684 27.018C12.1668 26.8581 12.3621 26.7559 12.5544 26.7116L12.2362 26.4472L12.4862 26.0631L15.9735 28.3396L15.7234 28.7237L15.3535 28.5389C15.3862 28.7301 15.3717 28.9503 15.3101 29.1995C15.2485 29.4486 15.153 29.6726 15.0237 29.8713C14.6904 30.3835 14.2604 30.6722 13.7339 30.7374Z" fill="white"/>
<path d="M16.3403 27.4594L13.0598 24.8811L15.1702 22.1878L18.4508 24.7661L18.1144 25.1953L15.2378 22.9344L13.8048 24.7631L16.6815 27.024L16.3403 27.4594Z" fill="white"/>
<path d="M19.2987 24.171L16.2556 21.3164L16.6281 20.9181L18.9969 23.1402L18.2636 19.1693L18.6091 18.8L21.6522 21.6546L21.2743 22.0586L18.9228 19.8527L19.6442 23.8016L19.2987 24.171Z" fill="white"/>
<path d="M23.8816 19.3981C23.4162 19.826 22.9087 20.0223 22.3588 19.9868C21.8094 19.9439 21.3247 19.6897 20.9049 19.2241C20.4815 18.7546 20.2743 18.2495 20.2832 17.7087C20.296 17.1643 20.5464 16.675 21.0344 16.2407C21.4166 15.9093 21.8036 15.7013 22.1956 15.6167L22.3097 16.1209C21.9968 16.1908 21.6903 16.3544 21.3902 16.6116C21.0115 16.9469 20.8214 17.3143 20.8197 17.7136C20.818 18.1129 20.9812 18.4945 21.3093 18.8583C21.6339 19.2183 21.9983 19.4179 22.4026 19.4571C22.8072 19.4889 23.1895 19.3386 23.5493 19.006C23.8306 18.7516 24.0243 18.4628 24.1302 18.1397L24.6194 18.3046C24.4955 18.6865 24.2496 19.051 23.8816 19.3981Z" fill="white"/>
<path d="M25.2943 17.611L26.2629 16.8611C26.4462 16.7192 26.5416 16.5454 26.5492 16.3397C26.5609 16.1307 26.4976 15.9366 26.3591 15.7572C26.2207 15.5779 26.0491 15.4676 25.8442 15.4264C25.6435 15.3819 25.4473 15.4338 25.2557 15.5822L24.2996 16.3223L25.2943 17.611ZM25.177 18.3514L22.6275 15.0484L23.0587 14.7146L23.981 15.9094L24.937 15.1693C25.2536 14.9242 25.5845 14.8312 25.9297 14.8905C26.2749 14.9497 26.5617 15.1273 26.7903 15.4234C27.0188 15.7195 27.1183 16.0423 27.0885 16.3918C27.0598 16.7339 26.8892 17.0259 26.5767 17.2677L25.177 18.3514Z" fill="white"/>
<path d="M37.3871 10.8616C36.8908 11.0675 36.4215 11.1252 35.9794 11.0349L36.0572 10.5406C36.4034 10.6195 36.791 10.5642 37.22 10.3748C37.4954 10.2549 37.6989 10.0992 37.8307 9.90764C37.9673 9.7141 37.9872 9.50049 37.8906 9.26681C37.7094 8.82866 37.2976 8.7428 36.6553 9.00925L36.0202 9.27266L35.833 8.81991L36.4607 8.55952C36.6651 8.47474 36.826 8.35381 36.9435 8.19672C37.0638 8.03274 37.094 7.85766 37.0341 7.67148C36.9593 7.46297 36.8239 7.34233 36.6279 7.30955C36.4319 7.27678 36.2088 7.30943 35.9587 7.40751C35.5402 7.5811 35.2406 7.808 35.0601 8.08823L34.672 7.77012C34.9406 7.41343 35.2891 7.14627 35.7173 6.96864C36.1026 6.79742 36.4653 6.74394 36.8054 6.80818C37.1435 6.86755 37.3812 7.07695 37.5184 7.43638C37.5719 7.57958 37.5788 7.74783 37.539 7.94114C37.5041 8.13243 37.4302 8.29142 37.3173 8.41811C37.5478 8.39662 37.764 8.44382 37.9659 8.55972C38.1677 8.67561 38.3089 8.83092 38.3895 9.02565C38.5485 9.41025 38.5254 9.76778 38.32 10.0982C38.1194 10.4267 37.8085 10.6811 37.3871 10.8616Z" fill="white"/>
<path d="M42.1756 8.13793L41.5325 6.15331C41.1617 5.88054 40.7057 5.83209 40.1646 6.00796C39.7237 6.15126 39.4401 6.40408 39.3139 6.76641C39.1876 7.12874 39.1951 7.52791 39.3364 7.96392C39.4793 8.40495 39.7081 8.73497 40.0228 8.954C40.3374 9.17302 40.7152 9.21088 41.1561 9.06758C41.7022 8.89008 42.042 8.5802 42.1756 8.13793ZM39.7666 9.41949C39.3192 9.13281 39.003 8.7038 38.8179 8.13247C38.6327 7.56114 38.6379 7.03041 38.8335 6.54029C39.0342 6.04855 39.4251 5.70822 40.0062 5.51932C40.2367 5.44441 40.4777 5.41041 40.7291 5.41732C40.9839 5.41758 41.2001 5.46088 41.3776 5.54722L41.296 5.14165L41.7319 4.99998L43.0157 8.9617L42.5799 9.10337L42.4081 8.72712C42.3134 8.89638 42.1638 9.05856 41.9593 9.21365C41.7549 9.36875 41.5399 9.48294 41.3144 9.55622C40.7332 9.74512 40.2173 9.69954 39.7666 9.41949Z" fill="white"/>
<path d="M43.4275 8.96411L42.4913 4.89805L45.8253 4.12812L46.7615 8.19419L46.2302 8.31688L45.4093 4.75137L43.1455 5.27414L43.9665 8.83964L43.4275 8.96411Z" fill="white"/>
<path d="M48.0308 7.73395L47.4549 3.60145L47.9949 3.52596L48.4432 6.74274L50.3662 3.19449L50.8671 3.12448L51.443 7.25698L50.8952 7.33356L50.4502 4.14026L48.5317 7.66394L48.0308 7.73395Z" fill="white"/>
<path d="M54.2172 7.33528C53.5864 7.37716 53.0676 7.21201 52.6608 6.83983C52.259 6.46209 52.04 5.96028 52.0038 5.3344C51.9673 4.70327 52.1217 4.17979 52.4671 3.76397C52.8177 3.34784 53.3192 3.12349 53.9717 3.0909C54.4772 3.07212 54.9093 3.15259 55.2679 3.33231L55.0415 3.79664C54.7536 3.65503 54.4122 3.59041 54.0171 3.60278C53.5119 3.62682 53.1337 3.79389 52.8825 4.10398C52.6313 4.41408 52.5199 4.81369 52.5482 5.30282C52.5762 5.78669 52.7356 6.17058 53.0264 6.4545C53.3222 6.73285 53.7145 6.85521 54.2033 6.82157C54.582 6.79959 54.9137 6.69591 55.1985 6.51052L55.477 6.94555C55.1414 7.16555 54.7215 7.29546 54.2172 7.33528Z" fill="white"/>
<path d="M57.2173 6.50997L58.4419 6.53838C58.6736 6.54375 58.8571 6.46896 58.9925 6.31401C59.1331 6.15919 59.206 5.96853 59.2112 5.74206C59.2164 5.51559 59.1524 5.32176 59.0191 5.16058C58.8911 4.99952 58.706 4.91618 58.4637 4.91056L57.255 4.88252L57.2173 6.50997ZM56.6603 7.01084L56.7568 2.83951L57.3019 2.85215L57.267 4.3611L58.4758 4.38914C58.876 4.39843 59.1917 4.53486 59.4227 4.79843C59.6538 5.062 59.765 5.38076 59.7563 5.75471C59.7477 6.12865 59.6219 6.44191 59.3789 6.69449C59.1413 6.94192 58.825 7.06106 58.43 7.05189L56.6603 7.01084Z" fill="white"/>
<path d="M70.3509 9.04299C69.8362 8.88853 69.436 8.6364 69.1502 8.28662L69.5223 7.95276C69.7409 8.23289 70.0763 8.4353 70.5284 8.55998C70.8175 8.64125 71.0736 8.64934 71.2965 8.58424C71.5245 8.52065 71.6747 8.36773 71.7472 8.12546C71.8832 7.67122 71.6181 7.34415 70.952 7.14426L70.2935 6.94663L70.434 6.47725L71.0849 6.6726C71.2968 6.7362 71.4979 6.74429 71.688 6.69685C71.8848 6.64588 72.0186 6.5293 72.0896 6.3471C72.1632 6.13814 72.1343 5.95897 72.003 5.80957C71.8718 5.66016 71.6782 5.54432 71.4224 5.46204C70.9884 5.33181 70.6131 5.31817 70.2963 5.42112L70.1961 4.92901C70.6294 4.82253 71.0681 4.83593 71.5121 4.96919C71.9188 5.08024 72.2337 5.26826 72.4569 5.53325C72.6816 5.79319 72.7337 6.10586 72.6134 6.47128C72.5645 6.61613 72.4637 6.75089 72.311 6.87555C72.1632 7.00172 72.0056 7.07818 71.8381 7.10492C72.0304 7.23414 72.1683 7.40751 72.2517 7.62505C72.335 7.84259 72.3465 8.0523 72.2861 8.25419C72.1668 8.65291 71.9233 8.91536 71.5556 9.04152C71.193 9.1692 70.7914 9.16969 70.3509 9.04299Z" fill="white"/>
<path d="M76.1898 9.62921L76.9437 7.68395C76.8284 7.23784 76.5056 6.91172 75.9753 6.70559C75.5432 6.53763 75.1639 6.55412 74.8375 6.75505C74.511 6.95598 74.2649 7.27013 74.0993 7.6975C73.9318 8.12978 73.9009 8.53036 74.0065 8.89926C74.1121 9.26815 74.381 9.53657 74.8131 9.70453C75.3484 9.91257 75.8073 9.88746 76.1898 9.62921ZM73.5142 9.09792C73.3485 8.59261 73.3741 8.05996 73.5911 7.49996C73.8081 6.93996 74.147 6.53191 74.6079 6.27582C75.0737 6.02164 75.5913 6.00524 76.1609 6.22664C76.3868 6.31444 76.595 6.44058 76.7855 6.60506C76.9828 6.76654 77.123 6.93691 77.2061 7.11616L77.3988 6.75018L77.826 6.91623L76.3211 10.7994L75.8939 10.6333L75.9982 10.233C75.8181 10.3043 75.5998 10.3353 75.3435 10.3261C75.0871 10.3169 74.8485 10.2694 74.6275 10.1835C74.0579 9.96208 73.6868 9.60022 73.5142 9.09792Z" fill="white"/>
<path d="M76.3567 11.0645L78.1918 7.31727L81.263 8.82581L79.4279 12.573L78.9385 12.3326L80.5477 9.04673L78.4624 8.02245L76.8532 11.3084L76.3567 11.0645Z" fill="white"/>
<path d="M80.5054 13.1878L82.6648 9.6176L83.131 9.90041L81.4501 12.6795L85.1782 11.1423L85.6106 11.4046L83.4512 14.9748L82.9783 14.6879L84.6469 11.9291L80.9378 13.4501L80.5054 13.1878Z" fill="white"/>
<path d="M85.9337 16.7103C85.4182 16.3442 85.1202 15.8882 85.0396 15.3424C84.9663 14.7953 85.1129 14.2675 85.4795 13.7589C85.8492 13.2461 86.2989 12.9374 86.8288 12.8329C87.363 12.7315 87.8932 12.8743 88.4196 13.2613C88.8233 13.5662 89.1075 13.9017 89.2722 14.2678L88.8039 14.485C88.67 14.1932 88.4461 13.9273 88.132 13.6873C87.7252 13.3867 87.3267 13.2774 86.9365 13.3593C86.5462 13.4412 86.2079 13.6809 85.9214 14.0784C85.638 14.4716 85.5195 14.8702 85.5659 15.2743C85.6197 15.6772 85.8467 16.0201 86.2468 16.3029C86.5542 16.5251 86.8767 16.6542 87.2144 16.6903L87.1559 17.2039C86.7571 17.1626 86.3497 16.998 85.9337 16.7103Z" fill="white"/>
<path d="M88.7122 17.8893L89.6441 18.6841C89.8205 18.8345 90.01 18.8923 90.2126 18.8573C90.4192 18.8258 90.5958 18.7238 90.7426 18.5512C90.8893 18.3786 90.9618 18.1877 90.96 17.9784C90.9621 17.7725 90.871 17.591 90.6867 17.4337L89.7667 16.6491L88.7122 17.8893ZM87.9646 17.9267L90.6675 14.7481L91.0824 15.1019L90.1046 16.2518L91.0245 17.0364C91.3292 17.2962 91.488 17.6014 91.5012 17.9518C91.5143 18.3023 91.3998 18.6201 91.1575 18.905C90.9152 19.19 90.6202 19.3539 90.2726 19.3967C89.9324 19.4389 89.612 19.3318 89.3114 19.0754L87.9646 17.9267Z" fill="white"/>
<path d="M97.196 28.0359C96.8914 27.5932 96.7372 27.146 96.7333 26.6942L97.2324 26.6667C97.2275 27.0221 97.3622 27.39 97.6367 27.7703C97.8112 28.0147 98.0058 28.1813 98.2203 28.27C98.4378 28.3632 98.6507 28.3379 98.8588 28.1943C99.2491 27.925 99.2471 27.5039 98.853 26.931L98.4633 26.3646L98.8665 26.0863L99.2517 26.6462C99.3771 26.8285 99.5288 26.9607 99.7068 27.0427C99.892 27.1261 100.069 27.119 100.239 27.0213C100.427 26.9043 100.516 26.7464 100.508 26.5477C100.499 26.349 100.42 26.1374 100.272 25.9131C100.016 25.5398 99.7316 25.2942 99.4202 25.1762L99.6501 24.7296C100.055 24.9178 100.388 25.2028 100.651 25.5848C100.898 25.926 101.026 26.2698 101.034 26.6163C101.047 26.9597 100.892 27.2363 100.569 27.446C100.441 27.5285 100.278 27.5705 100.081 27.5721C99.8864 27.578 99.7157 27.539 99.5684 27.455C99.6374 27.6762 99.6364 27.8978 99.5652 28.1197C99.4941 28.3416 99.3718 28.5124 99.1984 28.6321C98.8558 28.8684 98.5017 28.9208 98.1361 28.789C97.7735 28.6616 97.4601 28.4106 97.196 28.0359Z" fill="white"/>
<path d="M101.024 32.5068L102.831 31.4644C103.021 31.0446 102.974 30.5881 102.691 30.0949C102.46 29.693 102.154 29.4679 101.774 29.4196C101.393 29.3714 101.005 29.4617 100.608 29.6907C100.206 29.9224 99.9309 30.215 99.7817 30.5686C99.6326 30.9222 99.6736 31.3 99.9047 31.7019C100.191 32.1997 100.564 32.468 101.024 32.5068ZM99.2738 30.4146C99.4617 29.917 99.8157 29.5181 100.336 29.2181C100.856 28.918 101.376 28.8128 101.896 28.9024C102.418 28.9965 102.831 29.3085 103.136 29.8383C103.257 30.0483 103.339 30.2772 103.385 30.5248C103.437 30.7744 103.439 30.995 103.392 31.1868L103.771 31.0226L104 31.4199L100.392 33.5006L100.164 33.1033L100.496 32.8569C100.311 32.7994 100.122 32.6867 99.9278 32.5187C99.734 32.3507 99.578 32.164 99.4598 31.9585C99.1551 31.4287 99.0931 30.9141 99.2738 30.4146Z" fill="white"/>
<path d="M100.935 33.3869L104.714 31.6173L106.162 34.7177L102.383 36.4873L102.152 35.9933L105.466 34.4415L104.483 32.3364L101.169 33.8881L100.935 33.3869Z" fill="white"/>
<path d="M102.535 38.0137L106.457 36.5901L106.643 37.1028L103.59 38.211L107.457 39.3544L107.629 39.8299L103.707 41.2535L103.519 40.7334L106.55 39.6333L102.707 38.4893L102.535 38.0137Z" fill="white"/>
<path d="M104.532 44.1698C104.362 43.561 104.417 43.0192 104.698 42.5444C104.985 42.0734 105.432 41.7558 106.037 41.5916C106.647 41.426 107.191 41.4695 107.668 41.722C108.147 41.9795 108.47 42.4243 108.635 43.0563C108.757 43.5472 108.767 43.9867 108.665 44.3748L108.164 44.2487C108.243 43.9377 108.237 43.5902 108.144 43.206C108.017 42.7165 107.776 42.3806 107.421 42.1986C107.066 42.0165 106.652 41.9896 106.179 42.1179C105.711 42.2449 105.368 42.4799 105.15 42.823C104.938 43.1698 104.899 43.579 105.032 44.0505C105.131 44.4167 105.3 44.7201 105.54 44.9607L105.172 45.3228C104.888 45.0396 104.674 44.6552 104.532 44.1698Z" fill="white"/>
<path d="M105.859 46.2579L106.088 47.4611C106.132 47.6889 106.243 47.8526 106.423 47.9523C106.604 48.0572 106.806 48.0884 107.028 48.0459C107.251 48.0034 107.427 47.9 107.557 47.7358C107.687 47.5768 107.73 47.3782 107.684 47.1402L107.458 45.9525L105.859 46.2579ZM105.253 45.8186L109.351 45.0358L109.453 45.5714L107.971 45.8546L108.197 47.0423C108.272 47.4356 108.205 47.773 107.995 48.0543C107.786 48.3356 107.498 48.5113 107.13 48.5815C106.763 48.6517 106.43 48.5946 106.132 48.4101C105.841 48.2299 105.658 47.9457 105.584 47.5575L105.253 45.8186Z" fill="white"/>
<path d="M106.228 60.0105C106.271 59.4749 106.434 59.0309 106.716 58.6786L107.121 58.9731C106.892 59.2453 106.765 59.6154 106.737 60.0836C106.718 60.3834 106.764 60.6355 106.874 60.84C106.984 61.0498 107.165 61.165 107.417 61.1855C107.889 61.2239 108.154 60.8965 108.21 60.2034L108.266 59.5181L108.754 59.5578L108.699 60.2352C108.681 60.4557 108.715 60.6541 108.801 60.8302C108.892 61.0121 109.034 61.1187 109.227 61.1503C109.447 61.1787 109.616 61.1132 109.735 60.9537C109.854 60.7942 109.926 60.5808 109.953 60.3134C109.99 59.8618 109.925 59.4918 109.758 59.2034L110.218 59.0029C110.413 59.4046 110.491 59.8365 110.454 60.2986C110.43 60.7195 110.312 61.0667 110.1 61.3401C109.893 61.614 109.598 61.7301 109.215 61.6885C109.064 61.6708 108.911 61.6003 108.757 61.4767C108.603 61.3585 108.495 61.2202 108.434 61.062C108.348 61.277 108.207 61.4479 108.012 61.5747C107.816 61.7016 107.614 61.7564 107.404 61.7394C106.989 61.7056 106.681 61.5221 106.481 61.1887C106.28 60.8605 106.196 60.4678 106.228 60.0105Z" fill="white"/>
<path d="M106.464 65.7589L108.524 66.0873C108.936 65.8808 109.186 65.4967 109.275 64.9347C109.348 64.4769 109.252 64.1094 108.987 63.8324C108.721 63.5554 108.362 63.3808 107.91 63.3086C107.452 63.2356 107.054 63.2896 106.716 63.4704C106.378 63.6512 106.172 63.9706 106.099 64.4284C106.009 64.9955 106.131 65.439 106.464 65.7589ZM106.417 63.0307C106.876 62.7624 107.402 62.6756 107.995 62.7701C108.588 62.8647 109.059 63.1104 109.406 63.5072C109.753 63.9093 109.879 64.4121 109.783 65.0156C109.745 65.2549 109.665 65.485 109.545 65.7059C109.429 65.9328 109.292 66.1057 109.134 66.2246L109.533 66.3361L109.461 66.7888L105.348 66.1332L105.42 65.6805L105.833 65.6984C105.726 65.5372 105.649 65.3303 105.604 65.0777C105.559 64.825 105.555 64.5817 105.592 64.3475C105.688 63.744 105.963 63.3051 106.417 63.0307Z" fill="white"/>
<path d="M105.556 66.37L109.603 67.3861L108.772 70.7054L104.725 69.6893L104.858 69.1603L108.406 70.0513L108.97 67.7976L105.422 66.9066L105.556 66.37Z" fill="white"/>
<path d="M104.254 70.9614L108.197 72.3257L108.02 72.8412L104.95 71.7792L107.239 75.1047L107.074 75.5828L103.131 74.2185L103.311 73.6955L106.358 74.7498L104.089 71.4395L104.254 70.9614Z" fill="white"/>
<path d="M101.85 76.9786C102.1 76.3978 102.483 76.0112 103 75.8187C103.519 75.6332 104.065 75.667 104.638 75.9201C105.217 76.1753 105.612 76.5515 105.825 77.0486C106.036 77.5505 106.008 78.0993 105.74 78.6951C105.526 79.1538 105.258 79.5019 104.935 79.7393L104.625 79.326C104.882 79.1342 105.095 78.8596 105.263 78.5022C105.472 78.0414 105.495 77.6285 105.334 77.2635C105.172 76.8984 104.867 76.617 104.419 76.4192C103.975 76.2235 103.561 76.1904 103.176 76.3199C102.794 76.4563 102.506 76.7499 102.314 77.2004C102.161 77.5476 102.102 77.8903 102.138 78.2284L101.624 78.278C101.581 77.8789 101.656 77.4458 101.85 76.9786Z" fill="white"/>
<path d="M101.266 79.4777L100.687 80.5571C100.578 80.7614 100.561 80.959 100.638 81.1499C100.713 81.3455 100.85 81.497 101.049 81.6043C101.249 81.7116 101.45 81.7424 101.654 81.6966C101.856 81.6554 102.014 81.5281 102.128 81.3145L102.7 80.2491L101.266 79.4777ZM101.072 78.7539L104.746 80.7309L104.488 81.2114L103.159 80.4962L102.587 81.5616C102.398 81.9145 102.134 82.1342 101.794 82.2208C101.455 82.3074 101.121 82.262 100.791 82.0848C100.462 81.9076 100.24 81.6533 100.124 81.3221C100.011 80.998 100.048 80.6619 100.235 80.3137L101.072 78.7539Z" fill="white"/>
<path d="M93.0886 90.1733C93.4585 89.7835 93.8637 89.5401 94.3044 89.4432L94.434 89.9265C94.0857 89.9951 93.754 90.203 93.4389 90.5504C93.236 90.7718 93.1133 90.9968 93.0707 91.2254C93.0244 91.4578 93.0929 91.6612 93.2761 91.8355C93.6195 92.1624 94.0306 92.0736 94.5093 91.5692L94.9825 91.0705L95.3374 91.4083L94.8696 91.9012C94.7173 92.0617 94.6194 92.2376 94.5758 92.4289C94.5325 92.6277 94.576 92.8 94.7063 92.9458C94.8593 93.106 95.032 93.1613 95.2244 93.1117C95.4167 93.062 95.6073 92.9416 95.7961 92.7503C96.1079 92.4217 96.2895 92.0926 96.3407 91.7631L96.8244 91.8963C96.7238 92.3314 96.5139 92.7171 96.1948 93.0534C95.9123 93.3664 95.6026 93.5626 95.2658 93.642C94.9328 93.7251 94.6306 93.6302 94.3593 93.3574C94.2522 93.2483 94.1777 93.0973 94.1355 92.9044C94.0897 92.7154 94.0927 92.54 94.1445 92.3784C93.9426 92.4917 93.7259 92.5363 93.4944 92.5124C93.2629 92.4884 93.0709 92.4038 92.9182 92.2585C92.6167 91.9716 92.4928 91.6354 92.5463 91.2499C92.5961 90.8683 92.7769 90.5094 93.0886 90.1733Z" fill="white"/>
<path d="M89.8564 95.0828L91.2535 96.6321C91.7033 96.7297 92.1392 96.5876 92.5611 96.206C92.905 95.895 93.0605 95.5483 93.0278 95.1659C92.9951 94.7835 92.8253 94.4221 92.5184 94.0817C92.2079 93.7374 91.8644 93.5295 91.4878 93.4581C91.1113 93.3867 90.7511 93.5064 90.4073 93.8174C89.9814 94.2026 89.7978 94.6244 89.8564 95.0828ZM91.5316 92.9284C92.0568 93.0074 92.5205 93.2699 92.9227 93.7159C93.3249 94.162 93.5368 94.6487 93.5584 95.1761C93.5761 95.7071 93.3584 96.1775 92.9051 96.5874C92.7254 96.75 92.5194 96.8795 92.2871 96.9759C92.0545 97.0798 91.8395 97.1286 91.6423 97.1222L91.8823 97.4592L91.5424 97.7667L88.7535 94.6739L89.0934 94.3664L89.4038 94.6398C89.4211 94.4466 89.4913 94.2374 89.6146 94.0122C89.7379 93.7871 89.8875 93.595 90.0633 93.436C90.5165 93.026 91.0059 92.8568 91.5316 92.9284Z" fill="white"/>
<path d="M88.3338 94.919L90.847 98.2496L88.1186 100.315L85.6054 96.984L86.0402 96.6549L88.244 99.5755L90.0966 98.1734L87.8927 95.2528L88.3338 94.919Z" fill="white"/>
<path d="M84.5507 97.8174L86.7623 101.356L86.3003 101.645L84.5788 98.891L84.2716 102.917L83.8431 103.186L81.6315 99.6475L82.1002 99.3537L83.8091 102.088L84.1222 98.086L84.5507 97.8174Z" fill="white"/>
<path d="M78.903 100.977C79.4617 100.681 80.0025 100.62 80.5254 100.794C81.0461 100.974 81.4506 101.343 81.7387 101.9C82.0293 102.461 82.1018 103.002 81.9561 103.523C81.8057 104.047 81.4395 104.456 80.8572 104.753C80.4035 104.976 79.9764 105.079 79.5757 105.062L79.5931 104.545C79.9136 104.557 80.2516 104.476 80.6071 104.304C81.0584 104.075 81.3355 103.768 81.4383 103.382C81.5412 102.997 81.48 102.586 81.2548 102.151C81.032 101.721 80.73 101.435 80.3489 101.295C79.9654 101.161 79.5575 101.21 79.1251 101.44C78.7884 101.615 78.5279 101.845 78.3436 102.131L77.9121 101.847C78.1287 101.509 78.459 101.219 78.903 100.977Z" fill="white"/>
<path d="M77.2248 102.329L76.097 102.806C75.8835 102.897 75.7469 103.04 75.6871 103.237C75.6225 103.436 75.6342 103.64 75.7224 103.849C75.8105 104.058 75.9484 104.208 76.136 104.3C76.3188 104.394 76.5217 104.394 76.7449 104.3L77.8582 103.828L77.2248 102.329ZM77.527 101.643L79.1504 105.486L78.6483 105.699L78.0611 104.309L76.9478 104.78C76.5791 104.936 76.2354 104.942 75.9167 104.796C75.5979 104.651 75.3658 104.406 75.2203 104.062C75.0748 103.717 75.0609 103.38 75.1788 103.049C75.2938 102.726 75.5333 102.487 75.8971 102.333L77.527 101.643Z" fill="white"/>
<circle cx="98.8847" cy="86.1214" r="0.90706" transform="rotate(90 98.8847 86.1214)" fill="white"/>
<circle cx="67.1567" cy="106.972" r="0.90706" transform="rotate(90 67.1567 106.972)" fill="white"/>
<circle cx="29.0827" cy="99.7188" r="0.90706" transform="rotate(90 29.0827 99.7188)" fill="white"/>
<circle cx="8.23288" cy="72.5235" r="0.90706" transform="rotate(90 8.23288 72.5235)" fill="white"/>
<circle cx="9.59299" cy="37.6222" r="0.90706" transform="rotate(90 9.59299 37.6222)" fill="white"/>
<circle cx="30.8967" cy="12.2396" r="0.90706" transform="rotate(90 30.8967 12.2396)" fill="white"/>
<circle cx="64.8916" cy="5.44051" r="0.90706" transform="rotate(90 64.8916 5.44051)" fill="white"/>
<circle cx="95.2605" cy="21.7579" r="0.90706" transform="rotate(90 95.2605 21.7579)" fill="white"/>
<circle cx="108.405" cy="53.033" r="0.90706" transform="rotate(90 108.405 53.033)" fill="white"/>
</svg>
